<mxfile host="app.diagrams.net" modified="2024-05-16T17:50:21.279Z" agent="Mozilla/5.0 (Macintosh; Intel Mac OS X 10_15_7) AppleWebKit/605.1.15 (KHTML, like Gecko) Version/17.4.1 Safari/605.1.15" version="24.4.3" etag="4hWr2oIfslPRdl6xnJsI" type="github">
  <diagram name="Страница — 1" id="1fbR5N2CKa0zmv_AaQDy">
    <mxGraphModel>
      <root>
        <mxCell id="0" />
        <mxCell id="1" parent="0" />
      </root>
    </mxGraphModel>
  </diagram>
</mxfile>
